<svg xmlns="http://www.w3.org/2000/svg" xmlns:xlink="http://www.w3.org/1999/xlink" width="523" height="70" viewBox="0 0 523 70"><defs><clipPath id="b"><rect width="523" height="70"/></clipPath></defs><g id="a" clip-path="url(#b)"><rect width="523" height="70" fill="#fff"/><g transform="translate(0 -0.057)"><rect width="522.872" height="69.716" rx="4" fill="#fff6f6"/><path d="M7.746,1.937a5.816,5.816,0,0,0-5.81,5.81V61.97a5.816,5.816,0,0,0,5.81,5.81h507.38a5.816,5.816,0,0,0,5.81-5.81V7.746a5.816,5.816,0,0,0-5.81-5.81H7.746M7.746,0h507.38a7.746,7.746,0,0,1,7.746,7.746V61.97a7.746,7.746,0,0,1-7.746,7.746H7.746A7.746,7.746,0,0,1,0,61.97V7.746A7.746,7.746,0,0,1,7.746,0Z" fill="#1a3c60"/><g transform="translate(30.985 27.112)" opacity="0.278"><rect width="180.1" height="15.493" rx="5.5" fill="#1a3c5f"/><rect width="102.638" height="15.493" rx="5.5" transform="translate(195.593)" fill="#1a3c5f"/><rect width="122.003" height="15.493" rx="5.5" transform="translate(313.723)" fill="#1a3c5f"/></g><g transform="translate(37.763 21.302)"><rect width="180.1" height="15.493" rx="5.5" transform="translate(0 0)" fill="#1a3c5f"/><rect width="102.638" height="15.493" rx="5.5" transform="translate(195.593 0)" fill="#1a3c5f"/><rect width="122.003" height="15.493" rx="5.5" transform="translate(313.723 0)" fill="#1a3c5f"/></g></g></g></svg>