<svg xmlns="http://www.w3.org/2000/svg" xmlns:xlink="http://www.w3.org/1999/xlink" width="391" height="113" viewBox="0 0 391 113"><defs><clipPath id="b"><rect width="391" height="113"/></clipPath></defs><g id="a" clip-path="url(#b)"><rect width="391" height="113" fill="#fff"/><g transform="translate(0 0.128)"><rect width="391.45" height="112.738" rx="14" fill="#f0f2ff"/><path d="M12.526,3.132a9.4,9.4,0,0,0-9.395,9.395v87.685a9.4,9.4,0,0,0,9.395,9.395h366.4a9.4,9.4,0,0,0,9.395-9.395V12.526a9.4,9.4,0,0,0-9.395-9.395H12.526m0-3.132h366.4A12.526,12.526,0,0,1,391.45,12.526v87.685a12.526,12.526,0,0,1-12.526,12.526H12.526A12.526,12.526,0,0,1,0,100.211V12.526A12.526,12.526,0,0,1,12.526,0Z" fill="#2640fe"/><rect width="291.239" height="25.053" rx="12.526" transform="translate(50.106 43.842)" fill="#2640fe"/></g></g></svg>