<svg xmlns="http://www.w3.org/2000/svg" xmlns:xlink="http://www.w3.org/1999/xlink" width="765" height="101" viewBox="0 0 765 101"><defs><clipPath id="b"><rect width="765" height="101"/></clipPath></defs><g id="a" clip-path="url(#b)"><rect width="765" height="101" fill="#fff"/><g transform="translate(0 -0.5)"><rect width="764.803" height="101.974" rx="4" fill="#fffcf7"/><path d="M11.33,2.833a8.507,8.507,0,0,0-8.5,8.5V90.643a8.507,8.507,0,0,0,8.5,8.5H753.472a8.507,8.507,0,0,0,8.5-8.5V11.33a8.507,8.507,0,0,0-8.5-8.5H11.33M11.33,0H753.472A11.33,11.33,0,0,1,764.8,11.33V90.643a11.33,11.33,0,0,1-11.33,11.33H11.33A11.33,11.33,0,0,1,0,90.643V11.33A11.33,11.33,0,0,1,11.33,0Z" fill="#87ffbe"/><rect width="263.432" height="22.661" rx="11" transform="translate(45.322 19.828)" fill="#28c76f"/><rect width="263.432" height="22.661" rx="11" transform="translate(45.322 59.485)" fill="#28c76f"/><rect width="150.128" height="22.661" rx="11" transform="translate(331.415 19.828)" fill="#28c76f"/><rect width="150.128" height="22.661" rx="11" transform="translate(331.415 59.485)" fill="#28c76f"/><rect width="178.454" height="22.661" rx="11" transform="translate(504.203 19.828)" fill="#28c76f"/><rect width="178.454" height="22.661" rx="11" transform="translate(504.203 59.485)" fill="#28c76f"/><path d="M23.461,12.012A11.449,11.449,0,1,1,12.012.563,11.449,11.449,0,0,1,23.461,12.012ZM10.687,18.074l8.495-8.495a.739.739,0,0,0,0-1.045L18.137,7.49a.739.739,0,0,0-1.045,0l-6.928,6.928L6.931,11.183a.739.739,0,0,0-1.045,0L4.841,12.228a.739.739,0,0,0,0,1.045l4.8,4.8A.739.739,0,0,0,10.687,18.074Z" transform="translate(11.557 19.266)" fill="#28c76f"/><path d="M23.461,12.012A11.449,11.449,0,1,1,12.012.563,11.449,11.449,0,0,1,23.461,12.012ZM10.687,18.074l8.495-8.495a.739.739,0,0,0,0-1.045L18.137,7.49a.739.739,0,0,0-1.045,0l-6.928,6.928L6.931,11.183a.739.739,0,0,0-1.045,0L4.841,12.228a.739.739,0,0,0,0,1.045l4.8,4.8A.739.739,0,0,0,10.687,18.074Z" transform="translate(11.557 58.922)" fill="#28c76f"/></g></g></svg>